HIERARCHY
ROOT pelvis
{
  OFFSET 0 100 0
  CHANNELS 6 Xposition Yposition Zposition Zrotation Xrotation Yrotation
  JOINT pelvis_right_femur
  {
    OFFSET -10.78128 -3.44521 -0.5502486
    CHANNELS 3 Zrotation Xrotation Yrotation
    JOINT right_femur_tibia
    {
      OFFSET -0.8047443 -44.0398 -0.1307829
      CHANNELS 3 Zrotation Xrotation Yrotation
      JOINT right_tibia_foot
      {
        OFFSET 3.006224 -47.83518 -5
        CHANNELS 3 Zrotation Xrotation Yrotation
        End Site
        {
          OFFSET 0 -5 15
        }
      }
    }
  }
  JOINT pelvis_left_femur
  {
    OFFSET 10.78128 -3.44521 -0.5502486
    CHANNELS 3 Zrotation Xrotation Yrotation
    JOINT left_femur_tibia
    {
      OFFSET 0.8047443 -44.0398 -0.1307829
      CHANNELS 3 Zrotation Xrotation Yrotation
      JOINT left_tibia_foot
      {
        OFFSET -4.370144 -48.10324 -4.275266
        CHANNELS 3 Zrotation Xrotation Yrotation
        End Site
        {
          OFFSET 0 -5 15
        }
      }
    }
  }
  JOINT pelvis_spine1
  {
    OFFSET 0 6.468898 -3.129235
    CHANNELS 3 Zrotation Xrotation Yrotation
    JOINT spine1
    {
      OFFSET 0 23.15396 4.99043
      CHANNELS 3 Zrotation Xrotation Yrotation
      JOINT spine2
      {
        OFFSET 0 20.79997 -5.064912
        CHANNELS 3 Zrotation Xrotation Yrotation
        JOINT neck
        {
          OFFSET 0 14.38658 9.616178
          CHANNELS 3 Zrotation Xrotation Yrotation
          End Site
          {
            OFFSET 0 20 0
          }
        }
      }
      JOINT right_manubrium
      {
        OFFSET -5.722621 16.35077 3.967754
        CHANNELS 3 Zrotation Xrotation Yrotation
        JOINT right_clavicle
        {
          OFFSET -13.16364 1.694482 -4.693211
          CHANNELS 3 Zrotation Xrotation Yrotation
          JOINT right_humerus
          {
            OFFSET -28.5034 -0.3100689 -2.792744
            CHANNELS 3 Zrotation Xrotation Yrotation
            JOINT right_radius
            {
              OFFSET -25.15693 0.02248979 -1.271978
              CHANNELS 3 Zrotation Xrotation Yrotation
              End Site
              {
                OFFSET -15 0 0
              }
            }
          }
        }
      }
      JOINT left_manubrium
      {
        OFFSET 5.722621 16.35077 3.967754
        CHANNELS 3 Zrotation Xrotation Yrotation
        JOINT left_clavicle
        {
          OFFSET 13.16364 1.694482 -4.693211
          CHANNELS 3 Zrotation Xrotation Yrotation
          JOINT left_humerus
          {
            OFFSET 29.39168 -1.063119 -2.237045
            CHANNELS 3 Zrotation Xrotation Yrotation
            JOINT left_radius
            {
              OFFSET 24.59957 -0.9528479 0.9047498
              CHANNELS 3 Zrotation Xrotation Yrotation
              End Site
              {
                OFFSET 15 -0 -0
              }
            }
          }
        }
      }
    }
  }
}
MOTION
Frames: 13
Frame Time: 0.0416666666667
0 103.5113 0 2.214045 -0.3719313 -0.1378675 1.503078 -13.14983 10.69403 -0 39.78318 -0 -5.663721 -18.21124 -2.272747 -8.420205 8.717171 -24.33833 -0 4.343079 -0 15.79368 -11.83782 30.34786 -4.902462 -4.669172 5.553609 2.603683 10.47205 -7.498069 1.415735 21.97264 6.525272 2.922438 -24.74068 9.786199 7.046504 -20.43407 11.56433 84.61643 39.42787 -17.37002 -0 0 17.2932 -6.239908 7.706912 4.345181 5.02312 -18.59906 -1.569206 -91.86161 21.13744 20.54862 0 0 -13.37057 15.48881 13.74008 -4.41833
0.4246152 104.2795 1.36278 1.692875 -0.09769858 -0.2535145 2.489812 -15.91418 10.18816 -0 38.96503 -0 -5.690368 -16.8496 -2.248826 -7.973628 9.115389 -23.58141 -0 4.823923 -0 15.00639 -12.86968 29.46691 -4.469916 -4.076279 5.312075 2.631971 10.3605 -7.554381 1.401915 21.7072 6.645512 3.090046 -24.83554 9.728798 7.033592 -20.23786 11.60957 84.54185 39.33866 -17.34894 -0 0 17.19644 -6.484112 7.965034 4.240247 5.452275 -18.88007 -1.543715 -91.59122 20.8171 20.17998 0 0 -14.19773 15.55324 13.598 -4.520725
0.7076219 104.8892 3.051124 0.7459854 0.5961968 -0.2464522 4.522183 -21.0565 9.903056 -0 35.20651 -0 -4.616187 -17.18591 -3.183775 -7.154451 11.51268 -23.09281 -0 5.409602 -0 11.17135 -16.38634 27.308 -3.719124 -3.188699 4.728578 2.85928 9.164947 -7.708447 1.578926 21.6544 6.682868 2.837523 -24.89576 9.978391 6.666577 -19.45337 11.32565 85.01858 38.13073 -18.48529 -0 0 16.57441 -5.586229 8.301363 3.631083 5.854959 -18.82683 -1.251374 -92.24131 24.99595 20.2626 0 0 -17.09772 10.83154 14.91484 1.264077
0.952043 105.4254 5.13191 0.168119 0.8920229 -0.1315268 5.369951 -23.91877 9.082275 -0 33.25896 -0 -4.863869 -14.9485 -3.107227 -6.6179 12.19476 -22.15558 -0 6.142807 -0 9.366447 -17.72179 25.72123 -3.238915 -2.595968 4.311466 2.876985 8.987039 -7.725079 1.599838 21.53804 6.838195 2.991938 -24.96175 9.965511 6.434353 -19.07996 11.30502 85.38801 37.57341 -18.85121 -0 0 15.82203 -6.24332 8.687855 3.880844 6.156425 -19.23346 -1.378552 -92.05082 25.54521 19.93801 0 0 -18.31529 9.879024 15.1753 2.546471
1.164412 105.8808 7.705533 -0.445794 1.159418 0.1030352 6.049779 -26.84364 7.91169 -0 30.58561 -0 -5.349344 -11.8646 -2.890779 -6.024338 12.89239 -20.95003 -0 7.074933 -0 7.052428 -19.12373 23.64959 -2.705679 -1.976831 3.803323 2.877017 8.877487 -7.735103 1.609912 21.47052 7.033071 3.184581 -25.04127 9.922749 6.057443 -18.66779 11.288 86.0152 36.64746 -19.42443 -0 0 14.69828 -7.346146 9.128627 4.439614 6.396875 -19.81803 -1.67897 -91.84191 26.30861 19.61691 0 0 -19.71247 8.549075 15.51099 4.380149
1.399536 106.2289 10.82218 -0.91288 1.137819 0.4439896 6.14275 -29.07189 6.173406 -0 28.13233 -0 -6.353523 -7.555357 -2.140933 -5.583629 12.94633 -19.23777 -0 7.689584 -0 5.907129 -19.6663 21.82061 -2.260147 -1.493411 3.350214 2.822415 9.342064 -7.720823 1.5297 21.4009 7.228844 3.406775 -25.15341 9.7617 5.485519 -18.57347 11.45002 86.84777 35.2514 -19.81614 -0 0 13.27271 -9.352792 9.477005 5.586097 6.626932 -20.83409 -2.287183 -90.98575 25.23984 18.81119 0 0 -20.82911 9.136911 15.4143 3.928418
1.687516 106.3871 14.55087 -1.183325 0.8728948 0.8841956 5.657326 -30.79724 3.779985 -0 24.52333 -0 -7.556285 -2.727789 -1.039111 -5.30297 12.78514 -17.03586 -0 8.057716 -0 5.274177 -19.89868 19.9449 -1.890526 -1.124283 2.974083 2.718588 10.0889 -7.670113 1.422026 21.42104 7.343546 3.519597 -25.18693 9.51581 4.532379 -18.64819 11.65206 88.05385 32.94402 -20.32205 -0 0 11.42148 -11.96424 9.57036 7.151045 6.82554 -22.20122 -3.196 -89.69734 23.37933 17.55662 0 0 -22.23073 10.5017 15.04509 2.579274
2.056055 106.1831 18.92616 -0.9698647 0.07253013 1.394197 4.226039 -31.25923 0.4311497 -0 19.14188 -0 -8.77608 1.956678 0.3674628 -5.365026 12.46752 -14.32687 -0 7.823583 -0 5.424808 -19.84289 18.21306 -1.738074 -0.9607065 2.787078 2.466034 11.06281 -7.482419 1.313809 21.6933 7.263709 3.402912 -24.83184 9.125096 2.965462 -18.8908 11.82701 89.7427 29.19102 -20.88231 -0 0 9.053735 -15.24926 9.189914 9.090568 7.003544 -23.93291 -4.515759 -87.84504 20.61208 15.51834 0 0 -24.13065 12.73058 14.39276 0.1052938
2.488604 105.3397 23.93028 0.1361196 -1.689507 1.93377 1.647436 -29.34471 -3.970144 -0 10.87915 -0 -9.567866 5.117035 1.537122 -5.949348 12.58232 -11.36581 -0 6.776003 -0 5.692172 -20.0563 16.5832 -1.982032 -1.034981 2.833138 1.895163 11.77524 -6.990905 1.326197 22.56085 6.82315 2.948292 -23.48125 8.513281 0.5218247 -18.96723 11.74736 92.03451 23.3852 -21.4915 -0 0 6.050933 -19.07762 8.214509 11.10823 7.11204 -25.77984 -6.323775 -85.54376 18.15003 12.27575 0 0 -26.77935 14.41834 14.09409 -2.03707
2.858208 103.8032 29.40261 1.947868 -4.092823 2.427607 -0.7415518 -25.24193 -7.554138 -0 1.653082 -0 -9.356485 4.312304 0.9605626 -6.800577 14.71449 -9.673736 -0 5.92789 -0 4.126798 -21.47184 15.10054 -2.55434 -1.212972 2.813318 1.076396 10.92163 -6.209388 1.757484 24.13749 5.988071 2.336578 -20.92908 7.894311 -2.004926 -17.86798 11.12132 94.16856 17.4448 -21.9645 -0 0 3.161594 -21.93731 7.611929 12.07259 7.033609 -26.42264 -7.823051 -83.65463 19.25614 8.082618 0 0 -28.95413 12.29643 15.97133 -0.2325812
3.003062 102.8122 35.15127 1.495052 -3.524211 2.516831 0.8114863 -24.75938 -5.940144 -0 1.968833 -0 -9.091884 0.8416083 -1.675142 -5.936705 18.50165 -11.39995 -0 10.33319 -0 -1.536384 -22.26249 12.59791 -1.816556 -1.263758 2.001848 1.107195 8.173449 -6.14023 2.383821 24.63762 5.755624 2.232381 -20.57784 8.214336 -1.501906 -15.53072 10.40392 93.79294 18.56863 -22.42892 -0 0 3.035151 -20.67573 9.751928 11.06383 6.202478 -24.02794 -6.846517 -84.92948 25.90873 8.063454 0 0 -27.07468 4.293565 19.15833 8.927441
2.924411 103.1715 41.0103 -1.060439 -1.062808 2.507363 4.685811 -26.0426 -1.830887 -0 10.79406 -0 -9.72353 -1.209045 -3.25298 -3.879614 17.95087 -13.35731 -0 22.03076 -0 -6.555958 -18.26112 9.836656 0.3457667 -1.256438 1.332261 1.640604 6.812431 -6.658239 2.387188 23.88442 6.395746 2.421349 -22.57097 9.103433 0.6163735 -14.42923 10.39889 92.56368 24.17927 -22.78155 -0 0 4.499292 -18.12549 12.33212 9.941836 4.78424 -21.58118 -4.994321 -88.11205 29.98392 12.72041 0 0 -23.99191 -0.6041081 19.66492 15.86988
2.662483 103.9417 46.83098 -1.913722 -1.917451 2.367075 6.015104 -23.77741 -0.9661653 -0 14.47792 -0 -10.77051 -2.901004 -4.12835 -2.992901 15.58879 -13.40425 -0 33.33888 -0 -7.825522 -14.52774 9.714332 1.239988 -0.9783813 1.086233 1.492388 6.840734 -6.524884 2.556759 24.46087 6.392069 2.404784 -21.96607 9.341046 0.9651457 -13.6347 10.54145 92.62709 25.9034 -22.47747 -0 0 3.885929 -18.42239 13.81543 9.698737 4.206364 -21.12562 -4.713408 -88.62127 30.33643 13.1123 0 0 -22.46074 -0.5527514 21.06086 16.24356
